<svg width="17" height="21" viewBox="0 0 17 21" fill="none" xmlns="http://www.w3.org/2000/svg">
<path d="M14.1643 19.3683C13.0658 20.4331 11.8665 20.2649 10.712 19.7606C9.49031 19.245 8.36946 19.2226 7.08049 19.7606C5.46647 20.4555 4.61462 20.2537 3.65069 19.3683C-1.81905 13.7304 -1.01204 5.1447 5.19746 4.83086C6.71061 4.90932 7.76421 5.66029 8.64968 5.72754C9.97228 5.45853 11.2388 4.68515 12.6511 4.78602C14.3436 4.92053 15.6214 5.59303 16.462 6.80355C12.9649 8.89954 13.7944 13.5062 17 14.7952C16.3611 16.4765 15.5317 18.1465 14.153 19.3795L14.1643 19.3683ZM8.53759 4.76361C8.36947 2.26411 10.3982 0.201753 12.7296 0C13.0546 2.89179 10.1068 5.04382 8.53759 4.76361Z" fill="black"/>
</svg>
