<svg width="18" height="19" viewBox="0 0 18 19" fill="none" xmlns="http://www.w3.org/2000/svg">
<path d="M0.289666 0.933834L9.02967 9.50483L0.354666 18.1548C0.21274 17.97 0.102568 17.7628 0.0286656 17.5418C-0.0095552 17.2916 -0.0095552 17.0371 0.0286656 16.7868V2.06683C0.00266559 1.67183 0.0936656 1.27683 0.288666 0.933834M12.7947 5.76683L9.94167 8.59283L1.30567 0.0998344C1.58567 0.00283435 1.88567 -0.0241655 2.17867 0.0218345C2.63867 0.147835 3.07767 0.341834 3.48067 0.594834L11.2967 4.91983C11.8047 5.19283 12.2997 5.47983 12.7947 5.76683ZM9.94267 10.4298L12.7817 13.2178L10.7237 14.3638L4.44467 17.8538C3.92467 18.1408 3.40267 18.4148 2.89467 18.7278C2.67729 18.8632 2.43355 18.9506 2.17971 18.9842C1.92587 19.0178 1.66778 18.9969 1.42267 18.9228L9.94267 10.4298ZM17.3027 9.50483C17.31 9.85451 17.2216 10.1995 17.0471 10.5027C16.8727 10.8058 16.6187 11.0555 16.3127 11.2248L13.9667 12.5268L10.8797 9.50483L13.9797 6.43083C14.7747 6.87383 15.5567 7.31683 16.3377 7.73383C16.6491 7.90793 16.905 8.16664 17.0756 8.48004C17.2462 8.79345 17.3255 9.14874 17.3027 9.50483Z" fill="black"/>
</svg>
